<svg version="1.1" xmlns="http://www.w3.org/2000/svg" style="display: block;" viewBox="0 0 1668 1580" width="417" height="395" preserveAspectRatio="none">
<path transform="translate(0,0)" fill="rgb(0,0,0)" d="M 0 0 L 1668 0 L 1668 1580 L 0 1580 L 0 0 z"/>
<path transform="translate(0,0)" fill="rgb(254,254,254)" d="M 799.403 173.338 L 876.3 173.093 C 890.018 173.084 905.855 172.478 919.39 174.205 C 923.417 174.719 928.096 178.024 930.059 181.322 C 932.237 184.981 932.843 195.616 932.838 199.873 C 932.765 261.696 932.738 323.601 932.718 385.416 L 932.718 756.34 L 932.966 1017.57 C 932.971 1058.08 934.187 1106.29 932.766 1146.22 C 932.287 1162.26 930.139 1178.21 926.355 1193.82 C 908.868 1265.86 866.272 1316.64 804.301 1356.28 C 695.586 1425.83 511.037 1431 436.787 1308.06 C 399.936 1233.74 416.238 1153.66 469.029 1091.99 C 521.195 1031.64 596.636 996.423 676.395 995.188 C 698.168 994.648 716.374 997.494 737.836 999.068 C 746.095 999.674 748.63 987.3 748.539 980.651 C 748.146 951.938 748.166 923.199 748.193 894.458 L 748.402 693.06 L 748.657 594.943 C 748.705 581.684 749.507 552.069 747.702 540.144 C 745.093 535.761 741.138 534.039 736.287 532.938 C 724.029 530.157 709.215 531.837 696.599 531.854 C 678.577 531.879 559.957 534.355 551.062 530.129 C 547.212 528.3 543.946 523.524 542.762 519.548 C 540.802 512.972 541.18 406.592 541.849 396.022 C 542.092 392.185 542.663 388.796 544.506 385.364 C 551.427 380.221 583.246 376.445 592.86 374.863 C 679.201 360.658 751.038 303.046 775.083 217.588 C 778.596 205.101 779.982 190.249 787.098 179.18 C 790.188 174.373 794.24 174.064 799.403 173.338 z"/>
<path transform="translate(0,0)" fill="rgb(254,254,254)" d="M 978.659 175.887 C 988.654 176.176 991.389 177.838 995.724 186.974 C 1001.9 200.234 1004.75 215.457 1009.58 229.201 C 1028.71 283.713 1066.17 326.138 1111.42 360.932 C 1168.58 404.879 1211.06 440.8 1233.01 511.567 C 1257.32 589.942 1246.62 663.143 1208.73 735.58 C 1204.29 744.953 1190.2 773.488 1176.77 762.707 C 1169.36 756.753 1172.19 723.205 1171.92 713.497 C 1171.72 705.796 1170.94 698.123 1169.58 690.541 C 1151.42 590.375 1078.73 543.953 987.704 530.824 C 971.974 528.556 971.097 518.471 971.066 504.534 C 970.924 441.26 971.089 377.834 971.09 314.483 L 971.062 233.232 C 971.062 218.67 970.822 203.748 971.444 189.206 C 971.739 182.312 973.78 180.051 978.659 175.887 z"/>
</svg>